<svg width="16" height="27" viewBox="0 0 16 27" fill="none" xmlns="http://www.w3.org/2000/svg">
<path fill-rule="evenodd" clip-rule="evenodd" d="M1.32836 10.0416C4.44343 8.24936 10.3146 7.43693 13.4388 10.0416C15.7333 11.9545 15.6979 14.7862 15.6489 18.6959C15.6206 20.9597 15.5877 23.585 16 26.6027H11.7522L11.3774 24.5605C9.00359 28.0603 0.320538 28.3102 0.00819833 21.8733C-0.303833 15.4426 8.37891 14.8738 11.065 14.9988C11.3149 10.3742 5.25551 11.0616 2.20291 12.8538L1.32836 10.0416ZM11.1275 18.1236V20.6234C11.1275 24.3106 4.94317 24.998 4.5059 21.9358C4.06862 18.8735 7.12955 18.1236 11.1275 18.1236Z" fill="white"/>
<path fill-rule="evenodd" clip-rule="evenodd" d="M12.5018 3.58568C12.5018 -1.22642 4.0061 -1.16393 4.0061 3.58569C4.0061 8.3353 12.5018 8.39779 12.5018 3.58568ZM8.28812 5.61452C5.91433 5.61452 5.90645 1.62487 8.28812 1.62487C10.6698 1.62487 10.6619 5.61452 8.28812 5.61452Z" fill="white"/>
</svg>
