<svg width="192" height="46" viewBox="0 0 192 46" fill="none" xmlns="http://www.w3.org/2000/svg">
<path d="M68.9517 18.2697C68.135 16.7832 66.2975 15.8428 64.3726 15.8428C60.1726 15.8124 56.8768 18.5124 56.8768 23.6697C56.8768 28.918 60.0268 31.6484 64.2851 31.618C65.8892 31.5877 68.135 30.7383 68.9517 28.9787L69.1267 31.163H72.4808V16.2068H69.0683L68.9517 18.2697ZM64.6934 19.1495C70.2933 19.1495 70.2933 28.2203 64.6934 28.2203C62.3309 28.2203 60.4351 26.5214 60.4351 23.6697C60.4351 20.818 62.3309 19.1495 64.6934 19.1495Z" fill="#1D1D1F"/>
<path d="M76.3262 12.3843V16.2371H73.6429V19.4225H76.3262V25.8843C76.3262 29.6158 78.3678 31.4664 81.4886 31.345C82.5677 31.3147 83.4135 31.1326 84.4344 30.7079L83.4427 27.5529C82.9177 27.8259 82.2761 28.0079 81.7219 28.0079C80.6136 28.0079 79.8553 27.3102 79.8553 25.8843V19.4225H83.851V16.2371H79.8844V11.99L76.3262 12.3843Z" fill="#1D1D1F"/>
<path d="M99.642 31.163V23.154C99.642 21.1821 100.838 19.4529 102.763 19.4529C104.688 19.4529 105.475 21.1214 105.475 23.0933V31.163H109.034V23.0933C109.034 18.6034 107.021 15.9945 102.938 15.9945C101.071 15.9945 99.4087 16.6012 98.1254 18.7248C97.3087 16.6619 95.5879 15.9338 93.8671 15.9338C92.4963 15.9338 90.8338 16.4798 90.0755 17.9967L89.813 16.1765H86.5172V31.163H90.0755V23.154C90.0755 21.1821 91.213 19.3922 93.138 19.3922C95.0921 19.3922 96.0837 21.1821 96.0837 23.154V31.163H99.642Z" fill="#1D1D1F"/>
<path d="M123.952 18.2697C123.135 16.7832 121.297 15.8428 119.373 15.8428C115.173 15.8124 111.877 18.5124 111.877 23.6697C111.877 28.918 115.027 31.6484 119.285 31.618C120.889 31.5877 123.135 30.7383 123.952 28.9787L124.127 31.163H127.481V16.2068H124.068L123.952 18.2697ZM119.693 19.1495C125.293 19.1495 125.293 28.2203 119.693 28.2203C117.331 28.2203 115.435 26.5214 115.435 23.6697C115.435 20.818 117.331 19.1495 119.693 19.1495Z" fill="#1D1D1F"/>
<path d="M140.353 16.5709C139.361 15.8731 138.194 15.7214 137.057 15.7214C133.032 15.7214 129.765 18.6338 129.765 23.3057C129.765 27.9776 132.565 30.8293 137.057 30.8293C138.836 30.8293 140.703 31.7697 140.703 33.8326C140.703 35.8956 139.098 37.0484 137.057 37.0484C135.015 37.0484 133.294 35.7742 133.294 33.8326H129.765C129.765 37.8675 132.886 40.5068 137.057 40.5068C141.228 40.5068 144.261 37.9585 144.261 33.8326C144.261 31.9214 143.678 30.1315 141.286 28.8877C143.648 27.7652 144.319 25.1562 144.319 23.3057C144.319 21.6675 143.911 20.181 142.803 18.8765L144.407 16.7529L141.782 14.69L140.353 16.5709ZM137.057 19.0888C139.098 19.0888 140.79 20.727 140.79 23.3057C140.79 25.8843 139.098 27.4619 137.057 27.4619C134.986 27.4619 133.294 25.9147 133.294 23.3057C133.294 20.6967 134.986 19.0888 137.057 19.0888Z" fill="#1D1D1F"/>
<path d="M146.675 16.2068V24.0641C146.675 28.7057 149.183 31.4057 152.624 31.4057C154.637 31.4057 156.008 30.6776 157.495 29.1607L157.729 31.1933H160.908V16.2068H157.379V23.8518C157.379 26.127 155.891 28.0383 153.704 28.0383C151.429 28.0383 150.233 26.3091 150.233 24.0338V16.2068H146.675Z" fill="#1D1D1F"/>
<path d="M164.047 16.2068V31.163H167.605V23.2753C167.605 20.5147 169.326 19.4832 171.193 19.4832C172.359 19.4832 173.03 19.8169 173.759 20.454L175.363 17.2383C174.576 16.4192 173.147 15.8124 171.659 15.8124C170.201 15.8124 168.714 16.0855 167.605 17.936L167.343 16.2068H164.047Z" fill="#1D1D1F"/>
<path d="M177.066 16.2068V24.0641C177.066 28.7057 179.574 31.4057 183.015 31.4057C185.028 31.4057 186.399 30.6776 187.886 29.1607L188.12 31.1933H191.299V16.2068H187.77V23.8518C187.77 26.127 186.282 28.0383 184.095 28.0383C181.82 28.0383 180.624 26.3091 180.624 24.0338V16.2068H177.066Z" fill="#1D1D1F"/>
<circle cx="23.375" cy="22.875" r="22.875" fill="#D9F94B"/>
<path d="M33.7196 31.8114C35.6387 29.5644 35.3729 26.1871 33.1259 24.268C30.8789 22.3488 27.5016 22.6146 25.5825 24.8616C23.6634 27.1086 23.9292 30.486 26.1762 32.4051C28.4232 34.3242 31.8005 34.0584 33.7196 31.8114Z" fill="#1D1D1D"/>
<path d="M30.4598 7.18814C31.1569 7.78311 31.6895 8.54717 32.0066 9.40708C32.3236 10.267 32.4145 11.1939 32.2704 12.099C32.1263 13.0042 31.7522 13.8571 31.1838 14.5761C30.6155 15.2951 29.8719 15.856 29.0245 16.2051L28.8749 16.2644L26.2168 17.3363C24.4138 18.0599 22.2392 18.4111 20.4637 20.4899C18.9165 22.3015 18.6738 25.0511 18.238 26.8801L17.6006 29.4907L17.5727 29.6136C17.3609 30.506 16.9235 31.329 16.3023 32.0037C15.6811 32.6785 14.8969 33.1823 14.025 33.4669C13.1531 33.7515 12.2227 33.8073 11.3231 33.629C10.4234 33.4506 9.58465 33.0441 8.88723 32.4485C8.18981 31.8528 7.65713 31.088 7.34026 30.2273C7.02339 29.3666 6.93296 28.439 7.07765 27.5333C7.22234 26.6276 7.59729 25.7743 8.16655 25.0552C8.73581 24.336 9.48028 23.7752 10.3286 23.4265L10.3412 23.4117L10.4144 23.3861L10.7667 23.2615L13.3685 22.3543C15.0341 21.7701 17.1206 21.0795 18.8182 19.0919C19.456 18.3452 20.538 14.7717 20.9218 13.2871L21.7705 10.0169C21.9827 9.12553 22.4202 8.30361 23.0412 7.62987C23.6622 6.95613 24.4458 6.45314 25.3169 6.16911C26.188 5.88507 27.1175 5.8295 28.0163 6.00773C28.915 6.18595 29.753 6.59199 30.4498 7.18695L30.4598 7.18814Z" fill="#1D1D1D"/>
</svg>
