<svg width="323" height="83" viewBox="0 0 323 83" fill="none" xmlns="http://www.w3.org/2000/svg">
<path opacity="0.64" d="M316.698 26.6984C316.855 28.3795 315.534 32.0202 307.984 37.2123C300.909 42.078 290.081 47.0707 276.048 51.7975C248.074 61.2201 208.651 69.1636 164.457 73.2737C120.264 77.3839 80.0518 76.8469 50.8202 72.7447C36.1559 70.6868 24.5932 67.7766 16.7422 64.2991C8.36456 60.5883 6.39492 57.2536 6.23857 55.5725C6.08222 53.8914 7.40311 50.2506 14.9528 45.0585C22.0278 40.1929 32.8555 35.2002 46.8888 30.4734C74.8625 21.0508 114.286 13.1073 158.479 8.99717C202.673 4.887 242.885 5.42401 272.117 9.52619C286.781 11.5841 298.344 14.4943 306.195 17.9718C314.572 21.6826 316.542 25.0173 316.698 26.6984Z" stroke="#FF6464" stroke-width="12"/>
</svg>
