<svg width="16" height="16" viewBox="0 0 16 16" fill="none" xmlns="http://www.w3.org/2000/svg">
<path d="M12.1643 10.5841C11.6416 10.068 10.989 10.068 10.4696 10.5841C10.0734 10.977 9.67715 11.3699 9.2876 11.7694C9.18106 11.8793 9.09116 11.9026 8.96131 11.8293C8.70494 11.6895 8.43192 11.5763 8.18553 11.4231C7.03686 10.7006 6.07463 9.77165 5.22227 8.72616C4.79943 8.20674 4.42319 7.6507 4.16016 7.02474C4.10689 6.89821 4.11688 6.81497 4.22009 6.71176C4.6163 6.32885 5.00253 5.93596 5.39208 5.54307C5.93479 4.99701 5.93479 4.35773 5.38875 3.80835C5.0791 3.49537 4.76946 3.18904 4.45982 2.87606C4.14018 2.55642 3.82388 2.23345 3.50092 1.91714C2.97819 1.40771 2.3256 1.40771 1.8062 1.92047C1.40666 2.31336 1.02377 2.71624 0.617566 3.10247C0.241331 3.45874 0.0515495 3.89492 0.0115954 4.40435C-0.0516652 5.23342 0.151435 6.01587 0.437772 6.77835C1.02377 8.35658 1.91607 9.75833 2.99816 11.0436C4.45982 12.7816 6.20448 14.1567 8.24547 15.1489C9.16441 15.5951 10.1166 15.9381 11.1521 15.9947C11.8646 16.0346 12.4839 15.8548 12.98 15.2988C13.3196 14.9192 13.7025 14.5729 14.0621 14.21C14.5948 13.6706 14.5982 13.018 14.0688 12.4853C13.4362 11.8493 12.8002 11.2167 12.1643 10.5841Z" fill="white"/>
<path d="M11.5286 7.93138L12.7571 7.72162C12.564 6.59288 12.0313 5.5707 11.2222 4.75828C10.3666 3.90257 9.28447 3.36318 8.09251 3.1967L7.91937 4.43198C8.84165 4.56183 9.68068 4.97803 10.3433 5.64062C10.9692 6.26658 11.3787 7.05903 11.5286 7.93138Z" fill="white"/>
<path d="M13.4496 2.59042C12.0312 1.17202 10.2366 0.276356 8.25557 0L8.08243 1.23528C9.7938 1.47501 11.3453 2.25081 12.5706 3.47277C13.7326 4.63479 14.4951 6.10314 14.7714 7.718L16 7.50823C15.677 5.637 14.7947 3.93891 13.4496 2.59042Z" fill="white"/>
</svg>
