<svg width="148" height="149" viewBox="0 0 148 149" fill="none" xmlns="http://www.w3.org/2000/svg">
<path d="M59.7306 5.37769V5.4828H61.3336V3.87982H61.2285C61.2285 4.71022 60.5557 5.37769 59.7306 5.37769Z" fill="black"/>
<path d="M66.4316 5.48279L61.176 5.48279V2.01404C61.176 1.02715 61.976 0.227115 62.9629 0.227115H66.4316V5.48279Z" fill="black"/>
<path d="M71.5295 0.227112H66.2738V5.48278H71.5295V0.227112Z" fill="black"/>
<path d="M76.6277 0.227112H71.3721V5.48278H76.6277V0.227112Z" fill="black"/>
<path d="M81.7256 0.227112H76.47V5.48278H81.7256V0.227112Z" fill="black"/>
<path d="M86.8239 0.227112H81.5682V5.48278H86.8239V0.227112Z" fill="black"/>
<path d="M91.9216 0.227112H86.6659V5.48278H91.9216V0.227112Z" fill="black"/>
<path d="M97.0198 0.227112H91.7642V5.48278H97.0198V0.227112Z" fill="black"/>
<path d="M102.118 0.227112H96.8623V5.48278H102.118V0.227112Z" fill="black"/>
<path d="M101.96 0.227112H105.429C106.416 0.227112 107.216 1.02715 107.216 2.01404V3.69586C107.216 4.68275 106.416 5.48278 105.429 5.48278H101.96V0.227112Z" fill="black"/>
<path d="M46.0396 10.5808H42.5708C41.5839 10.5808 40.7839 9.78078 40.7839 8.79388V7.11207C40.7839 6.12517 41.5839 5.32514 42.5708 5.32514H46.0396V10.5808Z" fill="black"/>
<path d="M51.1378 5.32513H45.8821V10.5808H51.1378V5.32513Z" fill="black"/>
<path d="M56.2357 5.32513H50.98V10.5808H56.2357V5.32513Z" fill="black"/>
<path d="M61.3337 5.32513H56.078V10.5808H61.3337V5.32513Z" fill="black"/>
<path d="M61.1761 5.32513H66.4318V8.79388C66.4318 9.78077 65.6318 10.5808 64.6449 10.5808H61.1761V5.32513Z" fill="black"/>
<path d="M102.118 5.32501V8.79376C102.118 9.78065 101.318 10.5807 100.331 10.5807H98.6494C97.6625 10.5807 96.8625 9.78065 96.8625 8.79376V5.32501H102.118Z" fill="black"/>
<path d="M56.2357 10.4231H50.98V15.6788H56.2357V10.4231Z" fill="black"/>
<path d="M56.078 10.4231H61.3337V13.8918C61.3337 14.8787 60.5336 15.6788 59.5467 15.6788H56.078V10.4231Z" fill="black"/>
<path d="M64.8287 15.5737V15.6788H66.4317V14.0758H66.3266C66.3266 14.9062 65.6539 15.5737 64.8287 15.5737Z" fill="black"/>
<path d="M66.2737 15.6788V12.21C66.2737 11.2231 67.0737 10.4231 68.0606 10.4231H69.7424C70.7293 10.4231 71.5294 11.2231 71.5294 12.21V15.6788H66.2737Z" fill="black"/>
<path d="M76.47 11.9262V14.1809C76.47 15.0113 77.1427 15.6788 77.9731 15.6788H80.2278C81.0634 15.6788 81.7309 15.006 81.7309 14.1756V11.9262C81.7256 11.0906 81.0529 10.4231 80.2225 10.4231H77.9731C77.1427 10.4231 76.47 11.0958 76.47 11.9262Z" fill="black"/>
<path d="M91.9216 15.6788H88.4529C87.466 15.6788 86.666 14.8787 86.666 13.8918V12.21C86.666 11.2231 87.466 10.4231 88.4529 10.4231H91.9216V15.6788Z" fill="black"/>
<path d="M91.7642 15.6788V10.4231H95.2329C96.2198 10.4231 97.0198 11.2231 97.0198 12.21V15.6788H91.7642Z" fill="black"/>
<path d="M101.96 11.9262V14.1809C101.96 15.0113 102.633 15.6788 103.463 15.6788H105.718C106.553 15.6788 107.221 15.006 107.221 14.1756V11.9262C107.216 11.0906 106.543 10.4231 105.713 10.4231H103.463C102.633 10.4231 101.96 11.0958 101.96 11.9262Z" fill="black"/>
<path d="M51.1379 20.7768H47.6692C46.6823 20.7768 45.8823 19.9768 45.8823 18.9899V17.3081C45.8823 16.3212 46.6823 15.5211 47.6692 15.5211H51.1379V20.7768Z" fill="black"/>
<path d="M56.2357 15.5211H50.98V20.7768H56.2357V15.5211Z" fill="black"/>
<path d="M66.4316 20.7768H62.9629C61.976 20.7768 61.176 19.9768 61.176 18.9899V17.3081C61.176 16.3212 61.976 15.5211 62.9629 15.5211H66.4316V20.7768Z" fill="black"/>
<path d="M71.5295 15.5211H66.2738V20.7768H71.5295V15.5211Z" fill="black"/>
<path d="M71.3721 20.7768V15.5211H74.8408C75.8277 15.5211 76.6277 16.3212 76.6277 17.3081V20.7768H71.3721Z" fill="black"/>
<path d="M81.5684 20.7768V17.3081C81.5684 16.3212 82.3684 15.5211 83.3553 15.5211H85.0371C86.024 15.5211 86.824 16.3212 86.824 17.3081V20.7768H81.5684Z" fill="black"/>
<path d="M90.3187 20.6717V20.7768H91.9217V19.1738H91.8166C91.8166 20.0042 91.1439 20.6717 90.3187 20.6717Z" fill="black"/>
<path d="M97.0198 15.5211H91.7642V20.7768H97.0198V15.5211Z" fill="black"/>
<path d="M56.2357 20.6191H50.98V25.8748H56.2357V20.6191Z" fill="black"/>
<path d="M56.078 20.6191H59.5467C60.5336 20.6191 61.3337 21.4192 61.3337 22.4061V24.0879C61.3337 25.0748 60.5336 25.8748 59.5467 25.8748H56.078V20.6191Z" fill="black"/>
<path d="M76.6276 20.6191V24.0879C76.6276 25.0748 75.8275 25.8748 74.8406 25.8748H73.1588C72.1719 25.8748 71.3719 25.0748 71.3719 24.0879V20.6191H76.6276Z" fill="black"/>
<path d="M86.8239 20.6191H81.5682V25.8748H86.8239V20.6191Z" fill="black"/>
<path d="M91.9216 20.6191H86.6659V25.8748H91.9216V20.6191Z" fill="black"/>
<path d="M91.7642 20.6191H97.0198V24.0879C97.0198 25.0748 96.2198 25.8748 95.2329 25.8748H91.7642V20.6191Z" fill="black"/>
<path d="M46.0396 30.9728H40.7839V27.504C40.7839 26.5171 41.5839 25.7171 42.5708 25.7171H46.0396V30.9728Z" fill="black"/>
<path d="M51.1378 25.7171H45.8821V30.9728H51.1378V25.7171Z" fill="black"/>
<path d="M56.2357 25.7171H50.98V30.9728H56.2357V25.7171Z" fill="black"/>
<path d="M86.8239 25.7171H81.5682V30.9728H86.8239V25.7171Z" fill="black"/>
<path d="M86.6659 25.7171H91.9216V29.1858C91.9216 30.1727 91.1215 30.9728 90.1346 30.9728H86.6659V25.7171Z" fill="black"/>
<path d="M102.118 30.9728H98.6494C97.6625 30.9728 96.8625 30.1727 96.8625 29.1858V27.504C96.8625 26.5171 97.6625 25.7171 98.6494 25.7171H102.118V30.9728Z" fill="black"/>
<path d="M101.96 30.9728V25.7171H105.429C106.416 25.7171 107.216 26.5171 107.216 27.504V30.9728H101.96Z" fill="black"/>
<path d="M46.0397 30.8151H40.7841V36.0708H46.0397V30.8151Z" fill="black"/>
<path d="M56.2357 30.8151H50.98V36.0708H56.2357V30.8151Z" fill="black"/>
<path d="M59.7306 35.9657V36.0708H61.3336V34.4678H61.2285C61.2285 35.2982 60.5557 35.9657 59.7306 35.9657Z" fill="black"/>
<path d="M61.176 36.0708V32.6021C61.176 31.6152 61.9761 30.8151 62.963 30.8151H64.6448C65.6317 30.8151 66.4317 31.6152 66.4317 32.6021V36.0708H61.176Z" fill="black"/>
<path d="M71.3721 32.3182V34.5729C71.3721 35.4033 72.0448 36.0708 72.8752 36.0708H75.1299C75.9655 36.0708 76.633 35.3981 76.633 34.5677V32.3182C76.6277 31.4826 75.955 30.8151 75.1246 30.8151H72.8752C72.0448 30.8151 71.3721 31.4879 71.3721 32.3182Z" fill="black"/>
<path d="M86.8239 30.8151V34.2839C86.8239 35.2708 86.0238 36.0708 85.0369 36.0708H83.3551C82.3682 36.0708 81.5682 35.2708 81.5682 34.2839V30.8151H86.8239Z" fill="black"/>
<path d="M91.7642 32.3182V34.5729C91.7642 35.4033 92.4369 36.0708 93.2673 36.0708H95.522C96.3576 36.0708 97.0251 35.3981 97.0251 34.5677V32.3182C97.0198 31.4826 96.3471 30.8151 95.5167 30.8151H93.2673C92.4369 30.8151 91.7642 31.4879 91.7642 32.3182Z" fill="black"/>
<path d="M107.216 30.8151H101.96V36.0708H107.216V30.8151Z" fill="black"/>
<path d="M46.0396 35.9131V39.3819C46.0396 40.3688 45.2395 41.1688 44.2526 41.1688H42.5708C41.5839 41.1688 40.7839 40.3688 40.7839 39.3819V35.9131H46.0396Z" fill="black"/>
<path d="M56.2356 35.9131V41.1688H52.7669C51.78 41.1688 50.9799 40.3688 50.9799 39.3819V35.9131H56.2356Z" fill="black"/>
<path d="M61.3337 35.9131H56.078V41.1688H61.3337V35.9131Z" fill="black"/>
<path d="M66.4318 35.9131H61.1761V41.1688H66.4318V35.9131Z" fill="black"/>
<path d="M66.2737 41.1688V35.9132H69.7424C70.7293 35.9132 71.5294 36.7132 71.5294 37.7001V41.1688H66.2737Z" fill="black"/>
<path d="M100.515 41.0637V41.1688H102.118V39.5658H102.013C102.013 40.3962 101.34 41.0637 100.515 41.0637Z" fill="black"/>
<path d="M107.216 35.9131H101.96V41.1688H107.216V35.9131Z" fill="black"/>
<path d="M18.9468 46.1617V46.2668H20.5498V44.6638H20.4446C20.4446 45.4942 19.7719 46.1617 18.9468 46.1617Z" fill="black"/>
<path d="M25.6476 46.2668H20.3919V42.798C20.3919 41.8111 21.1919 41.0111 22.1788 41.0111H25.6476V46.2668Z" fill="black"/>
<path d="M30.7457 41.0111H25.49V46.2668H30.7457V41.0111Z" fill="black"/>
<path d="M35.8436 41.0111H30.5879V46.2668H35.8436V41.0111Z" fill="black"/>
<path d="M35.686 46.2668V41.0111H39.1548C40.1417 41.0111 40.9417 41.8111 40.9417 42.798V46.2668H35.686Z" fill="black"/>
<path d="M45.8821 42.5142V44.7689C45.8821 45.5993 46.5548 46.2668 47.3852 46.2668H49.6399C50.4755 46.2668 51.143 45.5941 51.143 44.7637V42.5142C51.1378 41.6786 50.465 41.0111 49.6346 41.0111H47.3852C46.5548 41.0111 45.8821 41.6838 45.8821 42.5142Z" fill="black"/>
<path d="M61.3339 41.0111V46.2668H57.8651C56.8782 46.2668 56.0782 45.4667 56.0782 44.4799V41.0111H61.3339Z" fill="black"/>
<path d="M66.4318 41.0111H61.1761V46.2668H66.4318V41.0111Z" fill="black"/>
<path d="M71.5295 41.0111H66.2738V46.2668H71.5295V41.0111Z" fill="black"/>
<path d="M81.5682 42.5142V44.7689C81.5682 45.5993 82.241 46.2668 83.0714 46.2668H85.326C86.1617 46.2668 86.8292 45.5941 86.8292 44.7637V42.5142C86.8239 41.6786 86.1512 41.0111 85.3208 41.0111H83.0714C82.241 41.0111 81.5682 41.6838 81.5682 42.5142Z" fill="black"/>
<path d="M102.118 46.2667H98.6494C97.6625 46.2667 96.8625 45.4667 96.8625 44.4798V42.798C96.8625 41.8111 97.6625 41.0111 98.6494 41.0111H102.118V46.2667Z" fill="black"/>
<path d="M101.96 41.0111H107.216V44.4799C107.216 45.4667 106.416 46.2668 105.429 46.2668H101.96V41.0111Z" fill="black"/>
<path d="M117.412 46.2668H112.156V42.798C112.156 41.8111 112.956 41.0111 113.943 41.0111H117.412V46.2668Z" fill="black"/>
<path d="M117.254 46.2668V41.0111H120.723C121.71 41.0111 122.51 41.8111 122.51 42.798V46.2668H117.254Z" fill="black"/>
<path d="M136.201 46.1617V46.2668H137.804V44.6638H137.699C137.699 45.4942 137.026 46.1617 136.201 46.1617Z" fill="black"/>
<path d="M137.646 46.2668V42.798C137.646 41.8111 138.446 41.0111 139.433 41.0111H141.115C142.102 41.0111 142.902 41.8111 142.902 42.798V46.2668H137.646Z" fill="black"/>
<path d="M8.75061 51.2597V51.3648H10.3536V49.7618H10.2485C10.2485 50.5922 9.57575 51.2597 8.75061 51.2597Z" fill="black"/>
<path d="M15.4518 51.3648H10.1961V47.8961C10.1961 46.9092 10.9961 46.1091 11.983 46.1091H15.4518V51.3648Z" fill="black"/>
<path d="M20.5497 46.1091H15.2941V51.3648H20.5497V46.1091Z" fill="black"/>
<path d="M25.6478 46.1091H20.3921V51.3648H25.6478V46.1091Z" fill="black"/>
<path d="M30.7457 46.1091H25.49V51.3648H30.7457V46.1091Z" fill="black"/>
<path d="M40.9418 46.1091V49.5779C40.9418 50.5648 40.1417 51.3648 39.1548 51.3648H37.473C36.4861 51.3648 35.6861 50.5648 35.6861 49.5779V46.1091H40.9418Z" fill="black"/>
<path d="M50.98 47.6123V49.8669C50.98 50.6973 51.6527 51.3648 52.4831 51.3648H54.7378C55.5734 51.3648 56.2409 50.6921 56.2409 49.8617V47.6123C56.2357 46.7766 55.5629 46.1091 54.7325 46.1091H52.4831C51.6527 46.1091 50.98 46.7819 50.98 47.6123Z" fill="black"/>
<path d="M71.5295 46.1091H66.2738V51.3648H71.5295V46.1091Z" fill="black"/>
<path d="M76.47 47.6123V49.8669C76.47 50.6973 77.1427 51.3648 77.9731 51.3648H80.2278C81.0634 51.3648 81.7309 50.6921 81.7309 49.8617V47.6123C81.7256 46.7766 81.0529 46.1091 80.2225 46.1091H77.9731C77.1427 46.1091 76.47 46.7819 76.47 47.6123Z" fill="black"/>
<path d="M85.2208 51.2597V51.3648H86.8238V49.7618H86.7187C86.7187 50.5922 86.046 51.2597 85.2208 51.2597Z" fill="black"/>
<path d="M91.9216 51.3648H86.666V47.8961C86.666 46.9092 87.466 46.1091 88.4529 46.1091H91.9216V51.3648Z" fill="black"/>
<path d="M91.7642 51.3648V46.1091H95.2329C96.2198 46.1091 97.0198 46.9092 97.0198 47.8961V51.3648H91.7642Z" fill="black"/>
<path d="M117.412 46.1091V51.3648H113.943C112.956 51.3648 112.156 50.5648 112.156 49.5779V46.1091H117.412Z" fill="black"/>
<path d="M122.51 46.1091H117.254V51.3648H122.51V46.1091Z" fill="black"/>
<path d="M122.352 51.3648V46.1091H125.821C126.808 46.1091 127.608 46.9092 127.608 47.8961V51.3648H122.352Z" fill="black"/>
<path d="M137.804 51.3648H134.335C133.348 51.3648 132.548 50.5648 132.548 49.5779V47.8961C132.548 46.9092 133.348 46.1091 134.335 46.1091H137.804V51.3648Z" fill="black"/>
<path d="M142.902 46.1091H137.646V51.3648H142.902V46.1091Z" fill="black"/>
<path d="M142.744 51.3648V46.1091H146.213C147.2 46.1091 148 46.9092 148 47.8961V51.3648H142.744Z" fill="black"/>
<path d="M3.65259 56.3577V56.4628H5.25557V54.8599H5.15045C5.15045 55.6903 4.47773 56.3577 3.65259 56.3577Z" fill="black"/>
<path d="M10.3538 56.4628H5.09809V52.9941C5.09809 52.0072 5.89812 51.2072 6.88502 51.2072H10.3538V56.4628Z" fill="black"/>
<path d="M10.1959 51.2072H15.4516V54.6759C15.4516 55.6628 14.6516 56.4628 13.6647 56.4628H10.1959V51.2072Z" fill="black"/>
<path d="M30.7457 51.2072H25.49V56.4628H30.7457V51.2072Z" fill="black"/>
<path d="M30.5879 51.2072H34.0566C35.0435 51.2072 35.8436 52.0072 35.8436 52.9941V54.6759C35.8436 55.6628 35.0435 56.4628 34.0566 56.4628H30.5879V51.2072Z" fill="black"/>
<path d="M46.0396 56.4628H42.5708C41.5839 56.4628 40.7839 55.6628 40.7839 54.6759V52.9941C40.7839 52.0072 41.5839 51.2072 42.5708 51.2072H46.0396V56.4628Z" fill="black"/>
<path d="M45.8821 51.2072H49.3508C50.3377 51.2072 51.1378 52.0072 51.1378 52.9941V54.6759C51.1378 55.6628 50.3377 56.4628 49.3508 56.4628H45.8821V51.2072Z" fill="black"/>
<path d="M66.4316 56.4628H62.9629C61.976 56.4628 61.176 55.6628 61.176 54.6759V52.9941C61.176 52.0072 61.976 51.2072 62.9629 51.2072H66.4316V56.4628Z" fill="black"/>
<path d="M71.5295 51.2072H66.2738V56.4628H71.5295V51.2072Z" fill="black"/>
<path d="M71.3721 56.4628V51.2072H74.8408C75.8277 51.2072 76.6277 52.0072 76.6277 52.9941V56.4628H71.3721Z" fill="black"/>
<path d="M86.8239 56.4628H81.5682V52.9941C81.5682 52.0072 82.3682 51.2072 83.3551 51.2072H86.8239V56.4628Z" fill="black"/>
<path d="M91.9216 51.2072H86.6659V56.4628H91.9216V51.2072Z" fill="black"/>
<path d="M91.7642 51.2072H97.0198V54.6759C97.0198 55.6628 96.2198 56.4628 95.2329 56.4628H91.7642V51.2072Z" fill="black"/>
<path d="M105.613 56.3577V56.4628H107.216V54.8599H107.111C107.111 55.6903 106.438 56.3577 105.613 56.3577Z" fill="black"/>
<path d="M107.058 56.4628V52.9941C107.058 52.0072 107.858 51.2072 108.845 51.2072H110.527C111.514 51.2072 112.314 52.0072 112.314 52.9941V56.4628H107.058Z" fill="black"/>
<path d="M127.608 51.2072H122.352V56.4628H127.608V51.2072Z" fill="black"/>
<path d="M127.45 56.4628V51.2072H130.919C131.906 51.2072 132.706 52.0072 132.706 52.9941V56.4628H127.45Z" fill="black"/>
<path d="M148 51.2072H142.744V56.4628H148V51.2072Z" fill="black"/>
<path d="M5.25586 61.5608H0.000186443V58.092C0.000186443 57.1052 0.800222 56.3051 1.78712 56.3051H5.25586L5.25586 61.5608Z" fill="black"/>
<path d="M10.3536 56.3051H5.0979V61.5608H10.3536V56.3051Z" fill="black"/>
<path d="M24.0447 61.4557V61.5608H25.6477V59.9578H25.5425C25.5425 60.7882 24.8698 61.4557 24.0447 61.4557Z" fill="black"/>
<path d="M30.7457 56.3051H25.49V61.5608H30.7457V56.3051Z" fill="black"/>
<path d="M54.6329 61.4557V61.5608H56.2359V59.9578H56.1308C56.1308 60.7882 55.4581 61.4557 54.6329 61.4557Z" fill="black"/>
<path d="M56.0781 61.5608V58.092C56.0781 57.1052 56.8782 56.3051 57.8651 56.3051H59.5469C60.5338 56.3051 61.3338 57.1052 61.3338 58.092V61.5608H56.0781Z" fill="black"/>
<path d="M76.6276 56.3051V59.7739C76.6276 60.7608 75.8275 61.5608 74.8406 61.5608H73.1588C72.1719 61.5608 71.3719 60.7608 71.3719 59.7739V56.3051H76.6276Z" fill="black"/>
<path d="M80.1226 61.4557V61.5608H81.7255V59.9578H81.6204C81.6204 60.7882 80.9477 61.4557 80.1226 61.4557Z" fill="black"/>
<path d="M86.8239 56.3051H81.5682V61.5608H86.8239V56.3051Z" fill="black"/>
<path d="M102.118 61.5609H98.6494C97.6625 61.5609 96.8625 60.7609 96.8625 59.774V58.0922C96.8625 57.1053 97.6625 56.3052 98.6494 56.3052H102.118V61.5609Z" fill="black"/>
<path d="M107.216 56.3051H101.96V61.5608H107.216V56.3051Z" fill="black"/>
<path d="M107.058 56.3051H112.314V59.7739C112.314 60.7608 111.514 61.5608 110.527 61.5608H107.058V56.3051Z" fill="black"/>
<path d="M127.608 56.3051V61.5608H124.139C123.152 61.5608 122.352 60.7608 122.352 59.7739V56.3051H127.608Z" fill="black"/>
<path d="M127.45 56.3051H132.706V59.7739C132.706 60.7608 131.906 61.5608 130.919 61.5608H127.45V56.3051Z" fill="black"/>
<path d="M142.902 61.5608H139.433C138.446 61.5608 137.646 60.7608 137.646 59.7739V58.092C137.646 57.1052 138.446 56.3051 139.433 56.3051H142.902V61.5608Z" fill="black"/>
<path d="M148 56.3051H142.744V61.5608H148V56.3051Z" fill="black"/>
<path d="M5.25586 61.4031V66.6588H1.78712C0.800222 66.6588 0.000186443 65.8588 0.000186443 64.8719V61.4031H5.25586Z" fill="black"/>
<path d="M5.0979 61.4031H10.3536V64.8719C10.3536 65.8588 9.55354 66.6588 8.56664 66.6588H5.0979V61.4031Z" fill="black"/>
<path d="M20.5496 66.6588H17.0808C16.0939 66.6588 15.2939 65.8588 15.2939 64.8719V63.1901C15.2939 62.2032 16.0939 61.4031 17.0808 61.4031H20.5496V66.6588Z" fill="black"/>
<path d="M25.6478 61.4031H20.3921V66.6588H25.6478V61.4031Z" fill="black"/>
<path d="M30.7457 61.4031H25.49V66.6588H30.7457V61.4031Z" fill="black"/>
<path d="M30.5879 61.4031H34.0566C35.0435 61.4031 35.8436 62.2032 35.8436 63.1901V64.8719C35.8436 65.8588 35.0435 66.6588 34.0566 66.6588H30.5879V61.4031Z" fill="black"/>
<path d="M39.3387 66.5537V66.6588H40.9417V65.0558H40.8366C40.8366 65.8862 40.1639 66.5537 39.3387 66.5537Z" fill="black"/>
<path d="M46.0396 66.6588H40.7839V63.1901C40.7839 62.2032 41.5839 61.4031 42.5708 61.4031H46.0396V66.6588Z" fill="black"/>
<path d="M51.1378 61.4031H45.8821V66.6588H51.1378V61.4031Z" fill="black"/>
<path d="M56.2357 61.4031H50.98V66.6588H56.2357V61.4031Z" fill="black"/>
<path d="M61.3337 61.4031H56.078V66.6588H61.3337V61.4031Z" fill="black"/>
<path d="M61.1761 61.4031H64.6449C65.6318 61.4031 66.4318 62.2032 66.4318 63.1901V64.8719C66.4318 65.8588 65.6318 66.6588 64.6449 66.6588H61.1761V61.4031Z" fill="black"/>
<path d="M75.0247 66.5537V66.6588H76.6276V65.0558H76.5225C76.5225 65.8862 75.8498 66.5537 75.0247 66.5537Z" fill="black"/>
<path d="M81.7258 66.6588H76.4702V63.1901C76.4702 62.2032 77.2702 61.4031 78.2571 61.4031H81.7258V66.6588Z" fill="black"/>
<path d="M81.5682 61.4031H86.8239V64.8719C86.8239 65.8588 86.0239 66.6588 85.037 66.6588H81.5682V61.4031Z" fill="black"/>
<path d="M117.254 62.9063V65.1609C117.254 65.9913 117.927 66.6588 118.757 66.6588H121.012C121.848 66.6588 122.515 65.9861 122.515 65.1557V62.9063C122.51 62.0706 121.837 61.4031 121.007 61.4031H118.757C117.927 61.4031 117.254 62.0759 117.254 62.9063Z" fill="black"/>
<path d="M148 61.4031H142.744V66.6588H148V61.4031Z" fill="black"/>
<path d="M25.6478 66.5012H20.3921V71.7568H25.6478V66.5012Z" fill="black"/>
<path d="M34.2408 71.6517V71.7568H35.8438V70.1538H35.7387C35.7387 70.9842 35.066 71.6517 34.2408 71.6517Z" fill="black"/>
<path d="M40.9418 71.7568H35.6861V68.2881C35.6861 67.3012 36.4861 66.5012 37.473 66.5012H40.9418V71.7568Z" fill="black"/>
<path d="M40.7841 66.5012H46.0397V69.9699C46.0397 70.9568 45.2397 71.7568 44.2528 71.7568H40.7841V66.5012Z" fill="black"/>
<path d="M61.3337 66.5012H56.078V71.7568H61.3337V66.5012Z" fill="black"/>
<path d="M76.6276 71.7568H71.3719V68.2881C71.3719 67.3012 72.1719 66.5012 73.1588 66.5012H76.6276V71.7568Z" fill="black"/>
<path d="M76.47 66.5012H81.7256V69.9699C81.7256 70.9568 80.9256 71.7568 79.9387 71.7568H76.47V66.5012Z" fill="black"/>
<path d="M85.2208 71.6517V71.7568H86.8238V70.1538H86.7187C86.7187 70.9842 86.046 71.6517 85.2208 71.6517Z" fill="black"/>
<path d="M86.6658 71.7568V68.2881C86.6658 67.3012 87.4658 66.5012 88.4527 66.5012H90.1345C91.1214 66.5012 91.9214 67.3012 91.9214 68.2881V71.7568H86.6658Z" fill="black"/>
<path d="M112.156 68.0043V70.259C112.156 71.0894 112.829 71.7568 113.659 71.7568H115.914C116.75 71.7568 117.417 71.0841 117.417 70.2537V68.0043C117.412 67.1686 116.739 66.5012 115.909 66.5012H113.659C112.829 66.5012 112.156 67.1739 112.156 68.0043Z" fill="black"/>
<path d="M122.352 71.7568V68.2881C122.352 67.3012 123.152 66.5012 124.139 66.5012H125.821C126.808 66.5012 127.608 67.3012 127.608 68.2881V71.7568H122.352Z" fill="black"/>
<path d="M137.804 71.7568H134.335C133.348 71.7568 132.548 70.9568 132.548 69.9699V68.2881C132.548 67.3012 133.348 66.5012 134.335 66.5012H137.804V71.7568Z" fill="black"/>
<path d="M142.902 66.5012H137.646V71.7568H142.902V66.5012Z" fill="black"/>
<path d="M148 66.5012H142.744V71.7568H148V66.5012Z" fill="black"/>
<path d="M0 73.1022V75.3569C0 76.1873 0.672726 76.8548 1.50312 76.8548H3.75781C4.59346 76.8548 5.26093 76.1821 5.26093 75.3517V73.1022C5.25567 72.2666 4.58295 71.5991 3.75255 71.5991H1.50312C0.672726 71.5991 0 72.2718 0 73.1022Z" fill="black"/>
<path d="M20.5496 76.8548H17.0808C16.0939 76.8548 15.2939 76.0548 15.2939 75.0679V73.3861C15.2939 72.3992 16.0939 71.5991 17.0808 71.5991H20.5496V76.8548Z" fill="black"/>
<path d="M20.3921 71.5991H25.6478V75.0679C25.6478 76.0548 24.8477 76.8548 23.8608 76.8548H20.3921V71.5991Z" fill="black"/>
<path d="M35.8438 76.8548H32.375C31.3881 76.8548 30.5881 76.0548 30.5881 75.0679V73.3861C30.5881 72.3992 31.3881 71.5991 32.375 71.5991H35.8438V76.8548Z" fill="black"/>
<path d="M35.6859 71.5991H40.9416V75.0679C40.9416 76.0548 40.1416 76.8548 39.1547 76.8548H35.6859V71.5991Z" fill="black"/>
<path d="M45.8821 76.8548V73.3861C45.8821 72.3992 46.6821 71.5991 47.669 71.5991H49.3508C50.3377 71.5991 51.1378 72.3992 51.1378 73.3861V76.8548H45.8821Z" fill="black"/>
<path d="M61.3337 71.5991H56.078V76.8548H61.3337V71.5991Z" fill="black"/>
<path d="M61.176 76.8548V71.5991H64.6448C65.6317 71.5991 66.4317 72.3992 66.4317 73.3861V76.8548H61.176Z" fill="black"/>
<path d="M69.9268 76.7497V76.8548H71.5297V75.2518H71.4246C71.4246 76.0822 70.7519 76.7497 69.9268 76.7497Z" fill="black"/>
<path d="M76.6277 71.5991H71.3721V76.8548H76.6277V71.5991Z" fill="black"/>
<path d="M80.1226 76.7497V76.8548H81.7255V75.2518H81.6204C81.6204 76.0822 80.9477 76.7497 80.1226 76.7497Z" fill="black"/>
<path d="M86.8239 76.8548H81.5682V73.3861C81.5682 72.3992 82.3682 71.5991 83.3551 71.5991H86.8239V76.8548Z" fill="black"/>
<path d="M91.9216 71.5991H86.6659V76.8548H91.9216V71.5991Z" fill="black"/>
<path d="M91.7642 76.8548V71.5991H95.2329C96.2198 71.5991 97.0198 72.3992 97.0198 73.3861V76.8548H91.7642Z" fill="black"/>
<path d="M101.96 73.1022V75.3569C101.96 76.1873 102.633 76.8548 103.463 76.8548H105.718C106.553 76.8548 107.221 76.1821 107.221 75.3517V73.1022C107.216 72.2666 106.543 71.5991 105.713 71.5991H103.463C102.633 71.5991 101.96 72.2718 101.96 73.1022Z" fill="black"/>
<path d="M127.608 71.5991V75.0679C127.608 76.0548 126.808 76.8548 125.821 76.8548H124.139C123.152 76.8548 122.352 76.0548 122.352 75.0679V71.5991H127.608Z" fill="black"/>
<path d="M148 71.5991V75.0679C148 76.0548 147.2 76.8548 146.213 76.8548H144.531C143.544 76.8548 142.744 76.0548 142.744 75.0679V71.5991H148Z" fill="black"/>
<path d="M5.0979 78.2003V80.4549C5.0979 81.2853 5.77063 81.9528 6.60102 81.9528H8.85571C9.69136 81.9528 10.3588 81.2801 10.3588 80.4497V78.2003C10.3536 77.3646 9.68085 76.6971 8.85045 76.6971H6.60102C5.77063 76.6971 5.0979 77.3699 5.0979 78.2003Z" fill="black"/>
<path d="M25.49 81.9528V78.4841C25.49 77.4972 26.29 76.6971 27.2769 76.6971H28.9587C29.9456 76.6971 30.7457 77.4972 30.7457 78.4841V81.9528H25.49Z" fill="black"/>
<path d="M51.1378 76.6971H45.8821V81.9528H51.1378V76.6971Z" fill="black"/>
<path d="M61.3339 76.6971V81.9528H57.8651C56.8782 81.9528 56.0782 81.1528 56.0782 80.1659V76.6971H61.3339Z" fill="black"/>
<path d="M66.4318 76.6971H61.1761V81.9528H66.4318V76.6971Z" fill="black"/>
<path d="M71.5295 76.6971H66.2738V81.9528H71.5295V76.6971Z" fill="black"/>
<path d="M76.6277 76.6971H71.3721V81.9528H76.6277V76.6971Z" fill="black"/>
<path d="M81.7256 76.6971H76.47V81.9528H81.7256V76.6971Z" fill="black"/>
<path d="M81.5682 76.6971H86.8239V80.1659C86.8239 81.1528 86.0239 81.9528 85.037 81.9528H81.5682V76.6971Z" fill="black"/>
<path d="M97.0198 76.6971H91.7642V81.9528H97.0198V76.6971Z" fill="black"/>
<path d="M105.613 81.8477V81.9528H107.216V80.3499H107.111C107.111 81.1802 106.438 81.8477 105.613 81.8477Z" fill="black"/>
<path d="M107.058 81.9528V78.4841C107.058 77.4972 107.858 76.6971 108.845 76.6971H110.527C111.514 76.6971 112.314 77.4972 112.314 78.4841V81.9528H107.058Z" fill="black"/>
<path d="M117.254 78.2003V80.4549C117.254 81.2853 117.927 81.9528 118.757 81.9528H121.012C121.848 81.9528 122.515 81.2801 122.515 80.4497V78.2003C122.51 77.3646 121.837 76.6971 121.007 76.6971H118.757C117.927 76.6971 117.254 77.3699 117.254 78.2003Z" fill="black"/>
<path d="M127.45 78.2003V80.4549C127.45 81.2853 128.123 81.9528 128.953 81.9528H131.208C132.043 81.9528 132.711 81.2801 132.711 80.4497V78.2003C132.706 77.3646 132.033 76.6971 131.203 76.6971H128.953C128.123 76.6971 127.45 77.3699 127.45 78.2003Z" fill="black"/>
<path d="M0 87.0508L0 83.5821C0 82.5952 0.800035 81.7952 1.78693 81.7952H3.46874C4.45564 81.7952 5.25567 82.5952 5.25567 83.5821V87.0508H0Z" fill="black"/>
<path d="M15.2941 83.2983V85.553C15.2941 86.3834 15.9668 87.0508 16.7972 87.0508H19.0519C19.8875 87.0508 20.555 86.3781 20.555 85.5477V83.2983C20.5497 82.4626 19.877 81.7952 19.0466 81.7952H16.7972C15.9668 81.7952 15.2941 82.4679 15.2941 83.2983Z" fill="black"/>
<path d="M30.7457 81.7952H25.49V87.0508H30.7457V81.7952Z" fill="black"/>
<path d="M30.5879 81.7952H34.0566C35.0435 81.7952 35.8436 82.5952 35.8436 83.5821V85.2639C35.8436 86.2508 35.0435 87.0508 34.0566 87.0508H30.5879V81.7952Z" fill="black"/>
<path d="M51.1379 81.7952V85.2639C51.1379 86.2508 50.3379 87.0508 49.351 87.0508H47.6692C46.6823 87.0508 45.8823 86.2508 45.8823 85.2639V81.7952H51.1379Z" fill="black"/>
<path d="M66.4316 81.7952V87.0508H62.9629C61.976 87.0508 61.176 86.2508 61.176 85.2639V81.7952H66.4316Z" fill="black"/>
<path d="M71.5295 81.7952H66.2738V87.0508H71.5295V81.7952Z" fill="black"/>
<path d="M91.9216 87.0508H86.666V83.5821C86.666 82.5952 87.466 81.7952 88.4529 81.7952H91.9216V87.0508Z" fill="black"/>
<path d="M97.0198 81.7952H91.7642V87.0508H97.0198V81.7952Z" fill="black"/>
<path d="M102.118 81.7952H96.8623V87.0509H102.118V81.7952Z" fill="black"/>
<path d="M107.216 81.7952H101.96V87.0508H107.216V81.7952Z" fill="black"/>
<path d="M107.058 81.7952H112.314V85.2639C112.314 86.2508 111.514 87.0508 110.527 87.0508H107.058V81.7952Z" fill="black"/>
<path d="M137.646 83.2983V85.553C137.646 86.3834 138.319 87.0508 139.149 87.0508H141.404C142.24 87.0508 142.907 86.3781 142.907 85.5477V83.2983C142.902 82.4626 142.229 81.7952 141.399 81.7952H139.149C138.319 81.7952 137.646 82.4679 137.646 83.2983Z" fill="black"/>
<path d="M5.25586 86.8932V90.3619C5.25586 91.3488 4.45582 92.1489 3.46893 92.1489H1.78712C0.800222 92.1489 0.000186443 91.3488 0.000186443 90.3619V86.8932H5.25586Z" fill="black"/>
<path d="M10.1959 88.3963V90.651C10.1959 91.4814 10.8686 92.1489 11.699 92.1489H13.9537C14.7894 92.1489 15.4569 91.4761 15.4569 90.6457V88.3963C15.4516 87.5607 14.7789 86.8932 13.9485 86.8932H11.699C10.8686 86.8932 10.1959 87.5659 10.1959 88.3963Z" fill="black"/>
<path d="M30.7457 86.8932H25.49V92.1489H30.7457V86.8932Z" fill="black"/>
<path d="M34.2408 92.0437V92.1488H35.8438V90.5458H35.7387C35.7387 91.3762 35.066 92.0437 34.2408 92.0437Z" fill="black"/>
<path d="M40.9418 92.1489H35.6861V88.6801C35.6861 87.6932 36.4861 86.8932 37.473 86.8932H40.9418V92.1489Z" fill="black"/>
<path d="M40.7839 92.1489V86.8932H44.2527C45.2396 86.8932 46.0396 87.6932 46.0396 88.6801V92.1489H40.7839Z" fill="black"/>
<path d="M49.5347 92.0437V92.1488H51.1376V90.5458H51.0325C51.0325 91.3762 50.3598 92.0437 49.5347 92.0437Z" fill="black"/>
<path d="M56.2356 92.1489H50.9799V88.6801C50.9799 87.6932 51.78 86.8932 52.7669 86.8932H56.2356V92.1489Z" fill="black"/>
<path d="M56.078 86.8932H59.5467C60.5336 86.8932 61.3337 87.6932 61.3337 88.6801V90.3619C61.3337 91.3488 60.5336 92.1489 59.5467 92.1489H56.078V86.8932Z" fill="black"/>
<path d="M71.5295 86.8932V90.3619C71.5295 91.3488 70.7295 92.1489 69.7426 92.1489H68.0608C67.0739 92.1489 66.2739 91.3488 66.2739 90.3619V86.8932H71.5295Z" fill="black"/>
<path d="M76.47 92.1489V88.6801C76.47 87.6932 77.27 86.8932 78.2569 86.8932H79.9387C80.9256 86.8932 81.7256 87.6932 81.7256 88.6801V92.1489H76.47Z" fill="black"/>
<path d="M85.2208 92.0437V92.1488H86.8238V90.5458H86.7187C86.7187 91.3762 86.046 92.0437 85.2208 92.0437Z" fill="black"/>
<path d="M91.9216 86.8932H86.6659V92.1489H91.9216V86.8932Z" fill="black"/>
<path d="M117.412 92.1489H113.943C112.956 92.1489 112.156 91.3488 112.156 90.3619V88.6801C112.156 87.6932 112.956 86.8932 113.943 86.8932H117.412V92.1489Z" fill="black"/>
<path d="M122.51 86.8932H117.254V92.1489H122.51V86.8932Z" fill="black"/>
<path d="M127.608 86.8932H122.352V92.1489H127.608V86.8932Z" fill="black"/>
<path d="M132.706 86.8932H127.45V92.1489H132.706V86.8932Z" fill="black"/>
<path d="M132.548 92.1489V86.8932H136.017C137.004 86.8932 137.804 87.6932 137.804 88.6801V92.1489H132.548Z" fill="black"/>
<path d="M142.744 92.1489V88.6801C142.744 87.6932 143.544 86.8932 144.531 86.8932H146.213C147.2 86.8932 148 87.6932 148 88.6801V92.1489H142.744Z" fill="black"/>
<path d="M13.8488 97.1417V97.2468H15.4517V95.6439H15.3466C15.3466 96.4743 14.6739 97.1417 13.8488 97.1417Z" fill="black"/>
<path d="M15.2939 97.2468V93.7781C15.2939 92.7912 16.094 91.9912 17.0809 91.9912H18.7627C19.7496 91.9912 20.5496 92.7912 20.5496 93.7781V97.2468H15.2939Z" fill="black"/>
<path d="M30.7458 91.9911V97.2468H27.2771C26.2902 97.2468 25.4902 96.4468 25.4902 95.4599V91.9911H30.7458Z" fill="black"/>
<path d="M35.8436 91.9911H30.5879V97.2468H35.8436V91.9911Z" fill="black"/>
<path d="M40.9416 91.9911H35.6859V97.2468H40.9416V91.9911Z" fill="black"/>
<path d="M46.0397 91.9911H40.7841V97.2468H46.0397V91.9911Z" fill="black"/>
<path d="M51.1378 91.9911H45.8821V97.2468H51.1378V91.9911Z" fill="black"/>
<path d="M50.98 91.9911H56.2357V95.4599C56.2357 96.4468 55.4356 97.2468 54.4487 97.2468H50.98V91.9911Z" fill="black"/>
<path d="M61.1761 93.4943V95.749C61.1761 96.5794 61.8489 97.2468 62.6793 97.2468H64.934C65.7696 97.2468 66.4371 96.5741 66.4371 95.7437V93.4943C66.4318 92.6586 65.7591 91.9911 64.9287 91.9911H62.6793C61.8489 91.9911 61.1761 92.6639 61.1761 93.4943Z" fill="black"/>
<path d="M81.7258 91.9911V97.2468H78.2571C77.2702 97.2468 76.4702 96.4468 76.4702 95.4599V91.9911H81.7258Z" fill="black"/>
<path d="M86.8239 91.9911H81.5682V97.2468H86.8239V91.9911Z" fill="black"/>
<path d="M91.9216 91.9911H86.6659V97.2468H91.9216V91.9911Z" fill="black"/>
<path d="M101.96 93.4943V95.749C101.96 96.5794 102.633 97.2468 103.463 97.2468H105.718C106.553 97.2468 107.221 96.5741 107.221 95.7437V93.4943C107.216 92.6586 106.543 91.9911 105.713 91.9911H103.463C102.633 91.9911 101.96 92.6639 101.96 93.4943Z" fill="black"/>
<path d="M122.51 91.9911V97.2468H119.041C118.054 97.2468 117.254 96.4468 117.254 95.4599V91.9911H122.51Z" fill="black"/>
<path d="M127.608 91.9911H122.352V97.2468H127.608V91.9911Z" fill="black"/>
<path d="M137.804 91.9911V95.4599C137.804 96.4468 137.004 97.2468 136.017 97.2468H134.335C133.348 97.2468 132.548 96.4468 132.548 95.4599V91.9911H137.804Z" fill="black"/>
<path d="M148 91.9911V95.4599C148 96.4468 147.2 97.2468 146.213 97.2468H144.531C143.544 97.2468 142.744 96.4468 142.744 95.4599V91.9911H148Z" fill="black"/>
<path d="M8.75061 102.24V102.345H10.3536V100.742H10.2485C10.2485 101.572 9.57575 102.24 8.75061 102.24Z" fill="black"/>
<path d="M15.4518 102.345H10.1961V98.8761C10.1961 97.8892 10.9961 97.0892 11.983 97.0892H15.4518V102.345Z" fill="black"/>
<path d="M20.5497 97.0892H15.2941V102.345H20.5497V97.0892Z" fill="black"/>
<path d="M20.3921 102.345V97.0892H23.8608C24.8477 97.0892 25.6478 97.8892 25.6478 98.8761V102.345H20.3921Z" fill="black"/>
<path d="M40.9416 97.0892H35.6859V102.345H40.9416V97.0892Z" fill="black"/>
<path d="M46.0397 97.0892H40.7841V102.345H46.0397V97.0892Z" fill="black"/>
<path d="M64.8287 102.24V102.345H66.4317V100.742H66.3266C66.3266 101.572 65.6539 102.24 64.8287 102.24Z" fill="black"/>
<path d="M66.2737 102.345V98.8761C66.2737 97.8892 67.0737 97.0892 68.0606 97.0892H69.7424C70.7293 97.0892 71.5294 97.8892 71.5294 98.8761V102.345H66.2737Z" fill="black"/>
<path d="M86.8239 97.0892V102.345H83.3551C82.3682 102.345 81.5682 101.545 81.5682 100.558V97.0892H86.8239Z" fill="black"/>
<path d="M86.6659 97.0892H91.9216V100.558C91.9216 101.545 91.1215 102.345 90.1346 102.345H86.6659V97.0892Z" fill="black"/>
<path d="M127.608 97.0892H122.352V102.345H127.608V97.0892Z" fill="black"/>
<path d="M127.45 97.0892H130.919C131.906 97.0892 132.706 97.8892 132.706 98.8761V100.558C132.706 101.545 131.906 102.345 130.919 102.345H127.45V97.0892Z" fill="black"/>
<path d="M5.25586 107.443H1.78712C0.800222 107.443 0.000186443 106.643 0.000186443 105.656V103.974C0.000186443 102.987 0.800222 102.187 1.78712 102.187H5.25586L5.25586 107.443Z" fill="black"/>
<path d="M10.3536 102.187H5.0979V107.443H10.3536V102.187Z" fill="black"/>
<path d="M10.1959 102.187H15.4516V105.656C15.4516 106.643 14.6516 107.443 13.6647 107.443H10.1959V102.187Z" fill="black"/>
<path d="M25.6476 102.187V105.656C25.6476 106.643 24.8475 107.443 23.8607 107.443H22.1788C21.1919 107.443 20.3919 106.643 20.3919 105.656V102.187H25.6476Z" fill="black"/>
<path d="M35.8438 107.443H32.375C31.3881 107.443 30.5881 106.643 30.5881 105.656V103.974C30.5881 102.987 31.3881 102.187 32.375 102.187H35.8438V107.443Z" fill="black"/>
<path d="M40.9416 102.187H35.6859V107.443H40.9416V102.187Z" fill="black"/>
<path d="M46.0397 102.187H40.7841V107.443H46.0397V102.187Z" fill="black"/>
<path d="M50.98 103.69V105.945C50.98 106.775 51.6527 107.443 52.4831 107.443H54.7378C55.5734 107.443 56.2409 106.77 56.2409 105.94V103.69C56.2357 102.855 55.5629 102.187 54.7325 102.187H52.4831C51.6527 102.187 50.98 102.86 50.98 103.69Z" fill="black"/>
<path d="M66.4316 107.443H62.9629C61.976 107.443 61.176 106.643 61.176 105.656V103.974C61.176 102.987 61.976 102.187 62.9629 102.187H66.4316V107.443Z" fill="black"/>
<path d="M71.5295 102.187H66.2738V107.443H71.5295V102.187Z" fill="black"/>
<path d="M100.515 107.338V107.443H102.118V105.84H102.013C102.013 106.67 101.34 107.338 100.515 107.338Z" fill="black"/>
<path d="M107.216 107.443H101.96V103.974C101.96 102.987 102.76 102.187 103.747 102.187H107.216V107.443Z" fill="black"/>
<path d="M112.314 102.187H107.058V107.443H112.314V102.187Z" fill="black"/>
<path d="M117.412 102.187H112.156V107.443H117.412V102.187Z" fill="black"/>
<path d="M122.51 102.187H117.254V107.443H122.51V102.187Z" fill="black"/>
<path d="M127.608 102.187H122.352V107.443H127.608V102.187Z" fill="black"/>
<path d="M137.646 103.69V105.945C137.646 106.775 138.319 107.443 139.149 107.443H141.404C142.24 107.443 142.907 106.77 142.907 105.94V103.69C142.902 102.855 142.229 102.187 141.399 102.187H139.149C138.319 102.187 137.646 102.86 137.646 103.69Z" fill="black"/>
<path d="M46.0397 107.285H40.7841V112.541H46.0397V107.285Z" fill="black"/>
<path d="M45.8821 112.541V107.285H49.3508C50.3377 107.285 51.1378 108.085 51.1378 109.072V112.541H45.8821Z" fill="black"/>
<path d="M56.078 108.788V111.043C56.078 111.873 56.7507 112.541 57.5811 112.541H59.8358C60.6715 112.541 61.3389 111.868 61.3389 111.038V108.788C61.3337 107.953 60.6609 107.285 59.8306 107.285H57.5811C56.7507 107.285 56.078 107.958 56.078 108.788Z" fill="black"/>
<path d="M71.5295 107.285V112.541H68.0608C67.0739 112.541 66.2739 111.741 66.2739 110.754V107.285H71.5295Z" fill="black"/>
<path d="M76.6277 107.285H71.3721V112.541H76.6277V107.285Z" fill="black"/>
<path d="M76.47 112.541V107.285H79.9387C80.9256 107.285 81.7256 108.085 81.7256 109.072V112.541H76.47Z" fill="black"/>
<path d="M91.9216 112.541H86.666V109.072C86.666 108.085 87.466 107.285 88.4529 107.285H91.9216V112.541Z" fill="black"/>
<path d="M97.0198 107.285H91.7642V112.541H97.0198V107.285Z" fill="black"/>
<path d="M102.118 107.285H96.8623V112.541H102.118V107.285Z" fill="black"/>
<path d="M107.216 107.285H101.96V112.541H107.216V107.285Z" fill="black"/>
<path d="M127.608 107.285H122.352V112.541H127.608V107.285Z" fill="black"/>
<path d="M132.548 108.788V111.043C132.548 111.873 133.221 112.541 134.051 112.541H136.306C137.142 112.541 137.809 111.868 137.809 111.038V108.788C137.804 107.953 137.131 107.285 136.301 107.285H134.051C133.221 107.285 132.548 107.958 132.548 108.788Z" fill="black"/>
<path d="M142.744 112.541V109.072C142.744 108.085 143.544 107.285 144.531 107.285H146.213C147.2 107.285 148 108.085 148 109.072V112.541H142.744Z" fill="black"/>
<path d="M46.0397 112.383H40.7841V117.639H46.0397V112.383Z" fill="black"/>
<path d="M51.1378 112.383H45.8821V117.639H51.1378V112.383Z" fill="black"/>
<path d="M61.176 117.639V114.17C61.176 113.183 61.9761 112.383 62.963 112.383H64.6448C65.6317 112.383 66.4317 113.183 66.4317 114.17V117.639H61.176Z" fill="black"/>
<path d="M76.6277 112.383H71.3721V117.639H76.6277V112.383Z" fill="black"/>
<path d="M81.7256 112.383H76.47V117.639H81.7256V112.383Z" fill="black"/>
<path d="M91.9216 112.383V117.639H88.4529C87.466 117.639 86.666 116.839 86.666 115.852V112.383H91.9216Z" fill="black"/>
<path d="M97.0198 112.383H91.7642V117.639H97.0198V112.383Z" fill="black"/>
<path d="M102.118 112.383H96.8623V117.639H102.118V112.383Z" fill="black"/>
<path d="M107.216 112.383H101.96V117.639H107.216V112.383Z" fill="black"/>
<path d="M112.156 113.886V116.141C112.156 116.971 112.829 117.639 113.659 117.639H115.914C116.75 117.639 117.417 116.966 117.417 116.136V113.886C117.412 113.051 116.739 112.383 115.909 112.383H113.659C112.829 112.383 112.156 113.056 112.156 113.886Z" fill="black"/>
<path d="M127.608 112.383H122.352V117.639H127.608V112.383Z" fill="black"/>
<path d="M148 112.383H142.744V117.639H148V112.383Z" fill="black"/>
<path d="M46.0397 117.481H40.7841V122.737H46.0397V117.481Z" fill="black"/>
<path d="M51.1378 117.481H45.8821V122.737H51.1378V117.481Z" fill="black"/>
<path d="M66.4318 117.481H61.1761V122.737H66.4318V117.481Z" fill="black"/>
<path d="M76.6276 117.481V122.737H73.1588C72.1719 122.737 71.3719 121.937 71.3719 120.95V117.481H76.6276Z" fill="black"/>
<path d="M81.7256 117.481H76.47V122.737H81.7256V117.481Z" fill="black"/>
<path d="M81.5684 122.737V117.481H85.0371C86.024 117.481 86.824 118.281 86.824 119.268V122.737H81.5684Z" fill="black"/>
<path d="M102.118 117.481H96.8623V122.737H102.118V117.481Z" fill="black"/>
<path d="M107.216 117.481H101.96V122.737H107.216V117.481Z" fill="black"/>
<path d="M120.907 122.632V122.737H122.51V121.134H122.405C122.405 121.964 121.732 122.632 120.907 122.632Z" fill="black"/>
<path d="M127.608 117.481H122.352V122.737H127.608V117.481Z" fill="black"/>
<path d="M127.45 117.481H130.919C131.906 117.481 132.706 118.281 132.706 119.268V120.95C132.706 121.937 131.906 122.737 130.919 122.737H127.45V117.481Z" fill="black"/>
<path d="M148 117.481V120.95C148 121.937 147.2 122.737 146.213 122.737H144.531C143.544 122.737 142.744 121.937 142.744 120.95V117.481H148Z" fill="black"/>
<path d="M46.0396 122.579V127.835H42.5708C41.5839 127.835 40.7839 127.035 40.7839 126.048V122.579H46.0396Z" fill="black"/>
<path d="M45.8821 122.579H51.1378V126.048C51.1378 127.035 50.3377 127.835 49.3508 127.835H45.8821V122.579Z" fill="black"/>
<path d="M66.4318 122.579H61.1761V127.835H66.4318V122.579Z" fill="black"/>
<path d="M81.7258 122.579V127.835H78.2571C77.2702 127.835 76.4702 127.035 76.4702 126.048V122.579H81.7258Z" fill="black"/>
<path d="M81.5682 122.579H86.8239V126.048C86.8239 127.035 86.0239 127.835 85.037 127.835H81.5682V122.579Z" fill="black"/>
<path d="M102.118 122.579V127.835H98.6494C97.6625 127.835 96.8625 127.035 96.8625 126.048V122.579H102.118Z" fill="black"/>
<path d="M107.216 122.579H101.96V127.835H107.216V122.579Z" fill="black"/>
<path d="M112.314 122.579H107.058V127.835H112.314V122.579Z" fill="black"/>
<path d="M117.412 122.579H112.156V127.835H117.412V122.579Z" fill="black"/>
<path d="M122.51 122.579H117.254V127.835H122.51V122.579Z" fill="black"/>
<path d="M122.352 122.579H127.608V126.048C127.608 127.035 126.808 127.835 125.821 127.835H122.352V122.579Z" fill="black"/>
<path d="M50.98 132.933V129.464C50.98 128.477 51.78 127.677 52.7669 127.677H54.4487C55.4356 127.677 56.2357 128.477 56.2357 129.464V132.933H50.98Z" fill="black"/>
<path d="M66.4316 127.677V132.933H62.9629C61.976 132.933 61.176 132.133 61.176 131.146V127.677H66.4316Z" fill="black"/>
<path d="M66.2738 127.677H69.7425C70.7294 127.677 71.5295 128.477 71.5295 129.464V131.146C71.5295 132.133 70.7294 132.933 69.7425 132.933H66.2738V127.677Z" fill="black"/>
<path d="M91.9216 132.933H88.4529C87.466 132.933 86.666 132.133 86.666 131.146V129.464C86.666 128.477 87.466 127.677 88.4529 127.677H91.9216V132.933Z" fill="black"/>
<path d="M91.7642 132.933V127.677H95.2329C96.2198 127.677 97.0198 128.477 97.0198 129.464V132.933H91.7642Z" fill="black"/>
<path d="M122.51 127.677V131.146C122.51 132.133 121.71 132.933 120.723 132.933H119.041C118.054 132.933 117.254 132.133 117.254 131.146V127.677H122.51Z" fill="black"/>
<path d="M137.804 132.933H134.335C133.348 132.933 132.548 132.133 132.548 131.146V129.464C132.548 128.477 133.348 127.677 134.335 127.677H137.804V132.933Z" fill="black"/>
<path d="M137.646 132.933V127.677H141.115C142.102 127.677 142.902 128.477 142.902 129.464V132.933H137.646Z" fill="black"/>
<path d="M49.5347 137.926V138.031H51.1376V136.428H51.0325C51.0325 137.258 50.3598 137.926 49.5347 137.926Z" fill="black"/>
<path d="M56.2357 132.775H50.98V138.031H56.2357V132.775Z" fill="black"/>
<path d="M56.0781 138.031V132.775H59.5469C60.5338 132.775 61.3338 133.575 61.3338 134.562V138.031H56.0781Z" fill="black"/>
<path d="M81.5684 138.031V134.562C81.5684 133.575 82.3684 132.775 83.3553 132.775H85.0371C86.024 132.775 86.824 133.575 86.824 134.562V138.031H81.5684Z" fill="black"/>
<path d="M97.0197 132.775V138.031H93.5509C92.564 138.031 91.764 137.231 91.764 136.244V132.775H97.0197Z" fill="black"/>
<path d="M102.118 132.775H96.8623V138.031H102.118V132.775Z" fill="black"/>
<path d="M107.216 132.775H101.96V138.031H107.216V132.775Z" fill="black"/>
<path d="M107.058 132.775H110.527C111.514 132.775 112.314 133.575 112.314 134.562V136.244C112.314 137.231 111.514 138.031 110.527 138.031H107.058V132.775Z" fill="black"/>
<path d="M127.45 134.278V136.533C127.45 137.363 128.123 138.031 128.953 138.031H131.208C132.043 138.031 132.711 137.358 132.711 136.528V134.278C132.706 133.443 132.033 132.775 131.203 132.775H128.953C128.123 132.775 127.45 133.448 127.45 134.278Z" fill="black"/>
<path d="M142.902 132.775H137.646V138.031H142.902V132.775Z" fill="black"/>
<path d="M142.744 138.031V132.775H146.213C147.2 132.775 148 133.575 148 134.562V138.031H142.744Z" fill="black"/>
<path d="M51.1379 143.129H47.6692C46.6823 143.129 45.8823 142.329 45.8823 141.342V139.66C45.8823 138.673 46.6823 137.873 47.6692 137.873H51.1379V143.129Z" fill="black"/>
<path d="M56.2357 137.873H50.98V143.129H56.2357V137.873Z" fill="black"/>
<path d="M56.078 137.873H61.3337V141.342C61.3337 142.329 60.5336 143.129 59.5467 143.129H56.078V137.873Z" fill="black"/>
<path d="M86.8239 137.873V141.342C86.8239 142.329 86.0238 143.129 85.0369 143.129H83.3551C82.3682 143.129 81.5682 142.329 81.5682 141.342V137.873H86.8239Z" fill="black"/>
<path d="M107.216 137.873H101.96V143.129H107.216V137.873Z" fill="black"/>
<path d="M117.254 139.376V141.631C117.254 142.461 117.927 143.129 118.757 143.129H121.012C121.848 143.129 122.515 142.456 122.515 141.626V139.376C122.51 138.541 121.837 137.873 121.007 137.873H118.757C117.927 137.873 117.254 138.546 117.254 139.376Z" fill="black"/>
<path d="M142.902 137.873H137.646V143.129H142.902V137.873Z" fill="black"/>
<path d="M142.744 137.873H148V141.342C148 142.329 147.2 143.129 146.213 143.129H142.744V137.873Z" fill="black"/>
<path d="M56.2356 142.971V146.44C56.2356 147.427 55.4356 148.227 54.4487 148.227H52.7669C51.78 148.227 50.9799 147.427 50.9799 146.44V142.971H56.2356Z" fill="black"/>
<path d="M66.2738 144.474V146.729C66.2738 147.559 66.9465 148.227 67.7769 148.227H70.0316C70.8673 148.227 71.5347 147.554 71.5347 146.724V144.474C71.5295 143.639 70.8568 142.971 70.0264 142.971H67.7769C66.9465 142.971 66.2738 143.644 66.2738 144.474Z" fill="black"/>
<path d="M86.6659 144.474V146.729C86.6659 147.559 87.3386 148.227 88.169 148.227H90.4237C91.2594 148.227 91.9268 147.554 91.9268 146.724V144.474C91.9216 143.639 91.2488 142.971 90.4184 142.971H88.169C87.3386 142.971 86.6659 143.644 86.6659 144.474Z" fill="black"/>
<path d="M107.216 142.971V146.44C107.216 147.427 106.416 148.227 105.429 148.227H103.747C102.76 148.227 101.96 147.427 101.96 146.44V142.971H107.216Z" fill="black"/>
<path d="M127.608 148.227H124.139C123.152 148.227 122.352 147.427 122.352 146.44V144.758C122.352 143.771 123.152 142.971 124.139 142.971H127.608V148.227Z" fill="black"/>
<path d="M127.45 142.971H130.919C131.906 142.971 132.706 143.771 132.706 144.758V146.44C132.706 147.427 131.906 148.227 130.919 148.227H127.45V142.971Z" fill="black"/>
<path d="M142.902 142.971V146.44C142.902 147.427 142.102 148.227 141.115 148.227H139.433C138.446 148.227 137.646 147.427 137.646 146.44V142.971H142.902Z" fill="black"/>
<path d="M31.5341 24.2628V12.9804C31.5341 7.97252 30.8529 6.7506 30.5599 6.45694C30.2662 6.16394 29.0443 5.48269 24.0357 5.48269H12.754C7.74541 5.48269 6.52349 6.16394 6.23049 6.45694C5.93749 6.7506 5.25558 7.97252 5.25558 12.9804V24.2628C5.25558 29.2714 5.93749 30.4933 6.23049 30.787C6.52349 31.0793 7.74541 31.7612 12.754 31.7612H24.0357C29.0443 31.7612 30.2662 31.0793 30.5599 30.787C30.8529 30.4933 31.5341 29.2714 31.5341 24.2628ZM24.0357 0.227112C34.3373 0.227112 36.7897 2.6795 36.7897 12.9804C36.7897 23.282 36.7897 13.9619 36.7897 24.2628C36.7897 34.5644 34.3373 37.0168 24.0357 37.0168C13.7348 37.0168 23.0549 37.0168 12.754 37.0168C2.45238 37.0168 0 34.5644 0 24.2628C0 13.9619 0 18.7333 0 12.9804C0 2.6795 2.45238 0.227112 12.754 0.227112C23.0549 0.227112 13.7348 0.227112 24.0357 0.227112ZM20.8123 10.7385C25.2274 10.7385 26.2784 11.79 26.2784 16.2039C26.2784 20.619 26.2784 16.6249 26.2784 21.0394C26.2784 25.4539 25.2274 26.5055 20.8123 26.5055C16.3978 26.5055 20.3919 26.5055 15.9774 26.5055C11.5629 26.5055 10.5113 25.4539 10.5113 21.0394C10.5113 16.6249 10.5113 18.6696 10.5113 16.2039C10.5113 11.79 11.5629 10.7385 15.9774 10.7385C20.3919 10.7385 16.3978 10.7385 20.8123 10.7385Z" fill="black"/>
<path d="M142.534 24.2628V12.9804C142.534 7.97252 141.853 6.7506 141.56 6.45694C141.266 6.16394 140.044 5.48269 135.035 5.48269H123.754C118.745 5.48269 117.523 6.16394 117.23 6.45694C116.937 6.7506 116.255 7.97252 116.255 12.9804V24.2628C116.255 29.2714 116.937 30.4933 117.23 30.787C117.523 31.0793 118.745 31.7612 123.754 31.7612H135.035C140.044 31.7612 141.266 31.0793 141.56 30.787C141.853 30.4933 142.534 29.2714 142.534 24.2628ZM135.035 0.227112C145.337 0.227112 147.789 2.6795 147.789 12.9804C147.789 23.282 147.789 13.9619 147.789 24.2628C147.789 34.5644 145.337 37.0168 135.035 37.0168C124.734 37.0168 134.055 37.0168 123.754 37.0168C113.452 37.0168 111 34.5644 111 24.2628C111 13.9619 111 18.7333 111 12.9804C111 2.6795 113.452 0.227112 123.754 0.227112C134.055 0.227112 124.734 0.227112 135.035 0.227112ZM131.812 10.7385C136.227 10.7385 137.278 11.79 137.278 16.2039C137.278 20.619 137.278 16.6249 137.278 21.0394C137.278 25.4539 136.227 26.5055 131.812 26.5055C127.397 26.5055 131.392 26.5055 126.977 26.5055C122.563 26.5055 121.511 25.4539 121.511 21.0394C121.511 16.6249 121.511 18.6696 121.511 16.2039C121.511 11.79 122.563 10.7385 126.977 10.7385C131.392 10.7385 127.397 10.7385 131.812 10.7385Z" fill="black"/>
<path d="M31.5341 135.263V123.98C31.5341 118.972 30.8529 117.75 30.5599 117.457C30.2662 117.164 29.0443 116.483 24.0357 116.483H12.754C7.74541 116.483 6.52349 117.164 6.23049 117.457C5.93749 117.75 5.25558 118.972 5.25558 123.98V135.263C5.25558 140.271 5.93749 141.493 6.23049 141.787C6.52349 142.079 7.74541 142.761 12.754 142.761H24.0357C29.0443 142.761 30.2662 142.079 30.5599 141.787C30.8529 141.493 31.5341 140.271 31.5341 135.263ZM24.0357 111.227C34.3373 111.227 36.7897 113.679 36.7897 123.98C36.7897 134.282 36.7897 124.962 36.7897 135.263C36.7897 145.564 34.3373 148.017 24.0357 148.017C13.7348 148.017 23.0549 148.017 12.754 148.017C2.45238 148.017 0 145.564 0 135.263C0 124.962 0 129.733 0 123.98C0 113.679 2.45238 111.227 12.754 111.227C23.0549 111.227 13.7348 111.227 24.0357 111.227ZM20.8123 121.738C25.2274 121.738 26.2784 122.79 26.2784 127.204C26.2784 131.619 26.2784 127.625 26.2784 132.039C26.2784 136.454 25.2274 137.505 20.8123 137.505C16.3978 137.505 20.3919 137.505 15.9774 137.505C11.5629 137.505 10.5113 136.454 10.5113 132.039C10.5113 127.625 10.5113 129.669 10.5113 127.204C10.5113 122.79 11.5629 121.738 15.9774 121.738C20.3919 121.738 16.3978 121.738 20.8123 121.738Z" fill="black"/>
</svg>
