<svg width="20" height="16" viewBox="0 0 20 16" fill="none" xmlns="http://www.w3.org/2000/svg">
<path d="M1.66484 6.96805C1.66484 6.96805 10.0681 3.45571 12.9825 2.21897C14.0997 1.72428 17.8884 0.141253 17.8884 0.141253C17.8884 0.141253 19.6371 -0.55132 19.4914 1.13064C19.4428 1.82322 19.0542 4.24722 18.6656 6.86911C18.0827 10.5793 17.4513 14.6358 17.4513 14.6358C17.4513 14.6358 17.3541 15.7736 16.5284 15.9715C15.7026 16.1694 14.3426 15.2789 14.0997 15.0811C13.9054 14.9326 10.4567 12.7065 9.19376 11.6182C8.85374 11.3214 8.46515 10.7277 9.24233 10.0352C10.991 8.40266 13.0797 6.37441 14.3426 5.08821C14.9255 4.49457 15.5083 3.10942 13.0797 4.79139C9.63092 7.2154 6.23077 9.49099 6.23077 9.49099C6.23077 9.49099 5.45359 9.98569 3.99638 9.54046C2.53917 9.09524 0.83909 8.5016 0.83909 8.5016C0.83909 8.5016 -0.326678 7.75956 1.66484 6.96805Z" fill="#AAB2BD"/>
</svg>
