<svg width="20" height="20" viewBox="0 0 20 20" fill="none" xmlns="http://www.w3.org/2000/svg">
<path d="M17.2069 1.95024C16.7087 1.49403 14.7007 0.0353656 10.2287 0.0143561C10.2287 0.0143561 4.95231 -0.303789 2.38014 2.05528C0.948492 3.48694 0.444262 5.58189 0.393239 8.18107C0.339214 10.7803 0.270183 15.6455 4.96432 16.9661H4.96732L4.96432 18.98C4.96432 18.98 4.9343 19.7964 5.47155 19.9614C6.11984 20.1625 6.50102 19.5442 7.1223 18.8749C7.46145 18.5088 7.93267 17.9685 8.28683 17.5573C11.4953 17.8275 13.9654 17.2092 14.2445 17.1191C14.8928 16.909 18.5605 16.4378 19.1548 11.5726C19.7701 6.55733 18.8546 3.38189 17.2069 1.95024ZM17.7501 11.2124C17.2459 15.2763 14.2716 15.5344 13.7253 15.7085C13.4912 15.7835 11.3242 16.3238 8.59897 16.1437C8.59897 16.1437 6.56705 18.5928 5.93376 19.2321C5.83471 19.3311 5.71766 19.3732 5.63962 19.3522C5.53158 19.3251 5.50156 19.1961 5.50156 19.007C5.50456 18.7369 5.51957 15.6605 5.51957 15.6605C5.51657 15.6605 5.51657 15.6605 5.51957 15.6605C1.55177 14.559 1.78287 10.4141 1.82789 8.2441C1.87291 6.07411 2.2811 4.2973 3.49065 3.10276C5.66664 1.13387 10.1477 1.428 10.1477 1.428C13.9324 1.44601 15.7452 2.58352 16.1654 2.9647C17.558 4.16224 18.2694 7.02254 17.7501 11.2124Z" fill="#AAB2BD"/>
<path d="M12.2675 8.0137C12.2181 6.99184 11.6995 6.45776 10.7115 6.40527" stroke="#AAB2BD" stroke-width="0.950706" stroke-linecap="round" stroke-linejoin="round"/>
<path d="M13.6018 8.46174C13.6234 7.51088 13.3424 6.71747 12.7559 6.07842C12.1693 5.43937 11.3574 5.08435 10.3139 5.01025" stroke="#AAB2BD" stroke-width="0.950706" stroke-linecap="round" stroke-linejoin="round"/>
<path d="M14.9694 8.99597C14.957 7.34432 14.4631 6.04769 13.4906 5.09684C12.5182 4.14907 11.3049 3.66746 9.85699 3.6582" stroke="#AAB2BD" stroke-width="0.950706" stroke-linecap="round" stroke-linejoin="round"/>
<path d="M10.7643 11.4992C10.7643 11.4992 11.1317 11.53 11.3262 11.2861L11.709 10.8045C11.8942 10.5637 12.3419 10.4125 12.7803 10.6564C13.0242 10.7953 13.4625 11.0639 13.7342 11.2645C14.0244 11.4776 14.6202 11.9746 14.6202 11.9746C14.9043 12.2123 14.9691 12.5642 14.7777 12.9347C14.7777 12.9378 14.7746 12.9409 14.7746 12.9409C14.577 13.2897 14.3115 13.6201 13.975 13.9257C13.9719 13.9288 13.9719 13.9288 13.9688 13.9319C13.6941 14.1603 13.4224 14.2931 13.1569 14.3239C13.126 14.3301 13.0859 14.3332 13.0396 14.3301C12.9223 14.3301 12.8081 14.3147 12.6938 14.2776L12.6846 14.2653C12.274 14.1511 11.5917 13.8609 10.4525 13.2342C9.7116 12.8267 9.09725 12.4099 8.5786 11.9962C8.30384 11.7801 8.0229 11.5331 7.73579 11.2491C7.72653 11.2398 7.71727 11.2306 7.70801 11.2213C7.69875 11.2121 7.68949 11.2028 7.68022 11.1935C7.67096 11.1843 7.6617 11.175 7.65244 11.1657C7.64318 11.1565 7.63392 11.1472 7.62465 11.138C7.34063 10.8508 7.09366 10.5699 6.87755 10.2952C6.46387 9.77651 6.0471 9.15907 5.63959 8.42123C5.01288 7.28205 4.72269 6.59978 4.60846 6.18918L4.59611 6.17992C4.55907 6.0657 4.54054 5.95147 4.54363 5.83415C4.54054 5.78785 4.54363 5.74771 4.54981 5.71684C4.58068 5.45134 4.71343 5.17967 4.94188 4.90491C4.94497 4.90182 4.94497 4.90182 4.94805 4.89873C5.25369 4.56223 5.58093 4.29673 5.93287 4.09915C5.93596 4.09915 5.93904 4.09606 5.93904 4.09606C6.30951 3.90466 6.66145 3.96949 6.89916 4.25351C6.90225 4.2566 7.3962 4.84934 7.60922 5.13954C7.80989 5.4143 8.08156 5.84959 8.2174 6.09348C8.46128 6.53186 8.31001 6.97951 8.06921 7.16474L7.58761 7.54755C7.34372 7.74513 7.37459 8.10942 7.37459 8.10942C7.37459 8.10942 8.09082 10.8169 10.7643 11.4992Z" fill="#AAB2BD"/>
</svg>
