<svg width="136" height="30" viewBox="0 0 136 30" fill="none" xmlns="http://www.w3.org/2000/svg">
<path d="M12.9517 7.26973C12.135 5.78322 10.2975 4.84277 8.37256 4.84277C4.17263 4.81243 0.876846 7.51243 0.876846 12.6697C0.876846 17.918 4.0268 20.6484 8.28506 20.618C9.8892 20.5877 12.135 19.7383 12.9517 17.9787L13.1267 20.163H16.4808V5.20681H13.0683L12.9517 7.26973ZM8.69339 8.14951C14.2933 8.14951 14.2933 17.2203 8.69339 17.2203C6.33093 17.2203 4.43512 15.5214 4.43512 12.6697C4.43512 9.81804 6.33093 8.14951 8.69339 8.14951Z" fill="#1D1D1F"/>
<path d="M20.3262 1.38434V5.23715H17.6429V8.42254H20.3262V14.8843C20.3262 18.6158 22.3678 20.4664 25.4886 20.345C26.5677 20.3147 27.4135 20.1326 28.4344 19.7079L27.4427 16.5529C26.9177 16.8259 26.2761 17.0079 25.7219 17.0079C24.6136 17.0079 23.8553 16.3102 23.8553 14.8843V8.42254H27.851V5.23715H23.8844V0.98996L20.3262 1.38434Z" fill="#1D1D1F"/>
<path d="M43.642 20.163V12.154C43.642 10.1821 44.8378 8.45288 46.7628 8.45288C48.6878 8.45288 49.4753 10.1214 49.4753 12.0933V20.163H53.0335V12.0933C53.0335 7.60344 51.0211 4.99445 46.9378 4.99445C45.0712 4.99445 43.4087 5.60119 42.1254 7.72479C41.3087 5.66187 39.5879 4.93378 37.8671 4.93378C36.4963 4.93378 34.8338 5.47985 34.0755 6.9967L33.813 5.17647H30.5172V20.163H34.0755V12.154C34.0755 10.1821 35.213 8.3922 37.138 8.3922C39.0921 8.3922 40.0837 10.1821 40.0837 12.154V20.163H43.642Z" fill="#1D1D1F"/>
<path d="M67.9516 7.26973C67.1349 5.78322 65.2975 4.84277 63.3725 4.84277C59.1726 4.81243 55.8768 7.51243 55.8768 12.6697C55.8768 17.918 59.0267 20.6484 63.285 20.618C64.8892 20.5877 67.1349 19.7383 67.9516 17.9787L68.1266 20.163H71.4807V5.20681H68.0683L67.9516 7.26973ZM63.6933 8.14951C69.2933 8.14951 69.2933 17.2203 63.6933 17.2203C61.3309 17.2203 59.4351 15.5214 59.4351 12.6697C59.4351 9.81804 61.3309 8.14951 63.6933 8.14951Z" fill="#1D1D1F"/>
<path d="M84.3526 5.57086C83.3609 4.8731 82.1943 4.72142 81.0568 4.72142C77.0319 4.72142 73.7652 7.63378 73.7652 12.3057C73.7652 16.9776 76.5652 19.8293 81.0568 19.8293C82.8359 19.8293 84.7026 20.7697 84.7026 22.8326C84.7026 24.8956 83.0984 26.0484 81.0568 26.0484C79.0152 26.0484 77.2944 24.7742 77.2944 22.8326H73.7652C73.7652 26.8675 76.886 29.5068 81.0568 29.5068C85.2276 29.5068 88.2609 26.9585 88.2609 22.8326C88.2609 20.9214 87.6775 19.1315 85.2859 17.8877C87.6484 16.7652 88.3192 14.1562 88.3192 12.3057C88.3192 10.6675 87.9109 9.18097 86.8025 7.87647L88.4067 5.75288L85.7817 3.68996L84.3526 5.57086ZM81.0568 8.08883C83.0984 8.08883 84.7901 9.72703 84.7901 12.3057C84.7901 14.8843 83.0984 16.4619 81.0568 16.4619C78.986 16.4619 77.2944 14.9147 77.2944 12.3057C77.2944 9.6967 78.986 8.08883 81.0568 8.08883Z" fill="#1D1D1F"/>
<path d="M90.6746 5.20681V13.0641C90.6746 17.7057 93.1829 20.4057 96.6245 20.4057C98.637 20.4057 100.008 19.6776 101.495 18.1607L101.729 20.1933H104.908V5.20681H101.379V12.8518C101.379 15.127 99.8911 17.0383 97.7036 17.0383C95.4287 17.0383 94.2329 15.3091 94.2329 13.0338V5.20681H90.6746Z" fill="#1D1D1F"/>
<path d="M108.047 5.20681V20.163H111.605V12.2753C111.605 9.51468 113.326 8.48321 115.193 8.48321C116.359 8.48321 117.03 8.81692 117.759 9.454L119.363 6.23827C118.576 5.41917 117.147 4.81243 115.659 4.81243C114.201 4.81243 112.714 5.08546 111.605 6.93602L111.343 5.20681H108.047Z" fill="#1D1D1F"/>
<path d="M121.066 5.20681V13.0641C121.066 17.7057 123.574 20.4057 127.015 20.4057C129.028 20.4057 130.399 19.6776 131.886 18.1607L132.12 20.1933H135.299V5.20681H131.77V12.8518C131.77 15.127 130.282 17.0383 128.095 17.0383C125.82 17.0383 124.624 15.3091 124.624 13.0338V5.20681H121.066Z" fill="#1D1D1F"/>
</svg>
