<svg width="34" height="33" viewBox="0 0 34 33" fill="none" xmlns="http://www.w3.org/2000/svg">
<path d="M29.7196 28.8114C31.6387 26.5644 31.3729 23.1871 29.1259 21.268C26.8789 19.3488 23.5016 19.6146 21.5825 21.8616C19.6634 24.1086 19.9292 27.486 22.1762 29.4051C24.4232 31.3242 27.8005 31.0584 29.7196 28.8114Z" fill="#1D1D1D"/>
<path d="M26.4598 4.18814C27.1569 4.78311 27.6895 5.54717 28.0066 6.40708C28.3236 7.267 28.4145 8.19394 28.2704 9.09904C28.1263 10.0042 27.7522 10.8571 27.1838 11.5761C26.6155 12.2951 25.8719 12.856 25.0245 13.2051L24.8749 13.2644L22.2168 14.3363C20.4138 15.0599 18.2392 15.4111 16.4637 17.4899C14.9165 19.3015 14.6738 22.0511 14.238 23.8801L13.6006 26.4907L13.5727 26.6136C13.3609 27.506 12.9235 28.329 12.3023 29.0037C11.6811 29.6785 10.8969 30.1823 10.025 30.4669C9.15312 30.7515 8.22273 30.8073 7.32306 30.629C6.4234 30.4506 5.58465 30.0441 4.88723 29.4485C4.18981 28.8528 3.65713 28.088 3.34026 27.2273C3.02339 26.3666 2.93296 25.439 3.07765 24.5333C3.22234 23.6276 3.59729 22.7743 4.16655 22.0552C4.73581 21.336 5.48028 20.7752 6.32857 20.4265L6.34125 20.4117L6.41443 20.3861L6.76671 20.2615L9.3685 19.3543C11.0341 18.7701 13.1206 18.0795 14.8182 16.0919C15.456 15.3452 16.538 11.7717 16.9218 10.2871L17.7705 7.01689C17.9827 6.12553 18.4202 5.30361 19.0412 4.62987C19.6622 3.95613 20.4458 3.45314 21.3169 3.16911C22.188 2.88507 23.1175 2.8295 24.0163 3.00773C24.915 3.18595 25.753 3.59199 26.4498 4.18695L26.4598 4.18814Z" fill="#1D1D1D"/>
</svg>
